<svg xmlns="http://www.w3.org/2000/svg" xmlns:xlink="http://www.w3.org/1999/xlink" version="1.1" id="Capa_1" x="0px" y="0px" viewBox="0 0 512 512" style="enable-background:new 0 0 512 512;" xml:space="preserve" width="300" height="300" xmlns:svgjs="http://svgjs.dev/svgjs"><g transform="matrix(1,0,0,1,0,0)"><g id="Kettlebell">
	<g>
		<path style="" d="M177.416,465.806C151.674,434.883,136,395.416,136,352c0-35.415,10.629-68.107,28.403-95.86&#10;&#9;&#9;&#9;c5.681-8.871,7.606-19.634,5.388-29.932l-18.654-86.599c-5.898-29.492,1.66-59.746,20.723-83.008S219.105,20,249.184,20h-58.652&#10;&#9;&#9;&#9;c-30.778,0-60.253,13.535-79.465,37.581c-18.479,23.128-25.746,52.948-19.93,82.028l22.319,103.614&#10;&#9;&#9;&#9;C90.297,273.516,76,310.926,76,352c0,43.416,15.674,82.883,41.416,113.806C131.857,483.155,154.176,492,176.752,492h60&#10;&#9;&#9;&#9;C214.176,492,191.857,483.155,177.416,465.806z" fill="#b2ddaaff" data-original-color="#cee1f2ff" stroke="none"/>
	</g>
	<path style="stroke-linecap: round; stroke-linejoin: round; stroke-miterlimit: 10;" d="&#10;&#9;&#9;M435.541,339.034c-2.576-36.189-16.055-69.241-36.885-96.37l22.207-103.055c5.898-29.492-1.66-59.746-20.723-83.008&#10;&#9;&#9;S352.895,20,322.816,20H189.184c-30.078,0-58.262,13.34-77.324,36.602s-26.621,53.516-20.723,83.008l22.319,103.614&#10;&#9;&#9;C90.297,273.516,76,310.926,76,352c0,43.416,15.674,82.883,41.416,113.806C131.857,483.155,154.176,492,176.752,492h158.496&#10;&#9;&#9;c22.576,0,44.895-8.845,59.336-26.194C420.326,434.883,436,395.416,436,352C436,347.64,435.846,343.316,435.541,339.034z&#10;&#9;&#9; M183.847,195.281l-14.272-71.375c-1.602-8.066,1.914-13.848,4.16-16.582c2.227-2.734,7.227-7.324,15.449-7.324h133.633&#10;&#9;&#9;c8.223,0,13.223,4.59,15.449,7.324c2.246,2.734,5.762,8.516,4.16,16.582l-14.314,71.587C305.978,185.769,281.725,180,256,180&#10;&#9;&#9;C230.297,180,205.966,185.574,183.847,195.281z" fill="none" stroke="#169100ff" data-original-stroke-color="#0023c4ff" stroke-width="40" data-original-stroke-width="40"/>
	
		<circle style="stroke-linecap: round; stroke-linejoin: round; stroke-miterlimit: 10;" cx="256" cy="352" r="40" fill="none" stroke="#497c40ff" data-original-stroke-color="#ff5cf4ff" stroke-width="40" data-original-stroke-width="40"/>
</g></g></svg>