<svg viewBox="0 0 24 24" xmlns="http://www.w3.org/2000/svg" width="300" height="300" version="1.1" xmlns:xlink="http://www.w3.org/1999/xlink" xmlns:svgjs="http://svgjs.dev/svgjs"><g transform="matrix(1,0,0,1,0,0)"><g><path d="m12.4714 1.41665c-.3222-.26034-.7944-.21022-1.0547.11195-.2604.32218-.2103.7944.1119 1.05474l.6.48484h-.1286c-5.39187 0-9.75 4.41305-9.75 9.84092 0 5.4278 4.35813 9.8409 9.75 9.8409 5.3919 0 9.75-4.4131 9.75-9.8409 0-3.43286-1.7424-6.45723-4.3841-8.21773-.3447-.22971-.8103-.13651-1.04.20817s-.1365.81032.2082 1.04003c2.2383 1.49174 3.7159 4.05503 3.7159 6.96953 0 4.6137-3.7007 8.3409-8.25 8.3409-4.54926 0-8.25-3.7272-8.25-8.3409s3.70074-8.34092 8.25-8.34092h.1286l-.6.48483c-.3222.26034-.3723.73257-.1119 1.05474.2603.32217.7325.37229 1.0547.11195l2.25-1.81818c.1762-.14239.2786-.3568.2786-.58334 0-.22655-.1024-.44096-.2786-.58335z" fill="#000000ff" data-original-color="#000000ff" stroke="none"/><path d="m6.25 13c0-3.17564 2.57436-5.75001 5.75-5.75001 3.1756 0 5.75 2.57437 5.75 5.75001 0 3.1756-2.5744 5.75-5.75 5.75-3.17564 0-5.75-2.5744-5.75-5.75z" fill="#000000ff" data-original-color="#000000ff" stroke="none"/></g></g></svg>