<svg enable-background="new 0 0 32 32" height="512" viewBox="0 0 32 32" width="512" xmlns="http://www.w3.org/2000/svg"><g id="Guide"><path d="m-178-94h346v220h-346z" fill="#fff"/></g><g id="Line" display="none"><g style="display:inline;fill:none;stroke:#111;stroke-width:2;stroke-linecap:round;stroke-linejoin:round;stroke-miterlimit:10"><path d="m27.98 7c-2.74-3.64-7.08-6-11.98-6-8.28 0-15 6.72-15 15s6.72 15 15 15 15-6.72 15-15c0-1.76-.32-3.43-.87-5"/><path d="m28 2v5h-5"/></g></g><g id="Line_Expand"><path d="m31.07 10.67c-.18-.52-.75-.79-1.28-.61-.52.18-.79.76-.61 1.28.55 1.52.82 3.09.82 4.66 0 7.72-6.28 14-14 14s-14-6.28-14-14 6.28-14 14-14c3.7 0 7.15 1.44 9.75 4h-2.75c-.55 0-1 .45-1 1s.45 1 1 1h5c.55 0 1-.45 1-1v-5c0-.55-.45-1-1-1s-1 .45-1 1v2.44c-2.95-2.83-6.83-4.44-11-4.44-8.82 0-16 7.18-16 16s7.18 16 16 16 16-7.18 16-16c0-1.8-.31-3.59-.93-5.33z" fill="#111"/></g></svg>