<?xml version="1.0"?>
<svg xmlns="http://www.w3.org/2000/svg" id="Glyph" viewBox="0 0 512 512"><g id="Glyph-2" data-name="Glyph"><path d="M499.18,160.49C492.22,88.58,420.54,16.73,348.78,9.74l-.1-.01a1158.785,1158.785,0,0,0-185.46.01C91.46,16.73,19.78,88.58,12.81,160.58a1201.448,1201.448,0,0,0,.01,190.93c6.96,71.91,78.64,143.76,150.5,150.76,30.74,2.47,61.68,3.71,92.65,3.71,30.99,0,62-1.24,92.81-3.72,71.76-6.99,143.45-78.84,150.41-150.85a1201.373,1201.373,0,0,0,0-190.83ZM404,172a24,24,0,1,1-24,24A24,24,0,0,1,404,172Zm34.954,111.622C425.549,373.281,347.915,442.233,254.528,442,152.549,441.745,69.255,358.45,69,256.472,68.744,153.7,152.283,70,255,70a185.052,185.052,0,0,1,111.315,37.075,23.949,23.949,0,0,1,2.523,36.087h0a24.008,24.008,0,0,1-31.371,2.176A137.39,137.39,0,0,0,255,118c-76.162,0-138.917,63.559-137.99,139.716a138.011,138.011,0,0,0,274.482,18.76A23.969,23.969,0,0,1,415.188,256h.083A24,24,0,0,1,438.954,283.622Zm-118.983,2.407a24,24,0,0,1-33.942,33.942L256,289.941l-30.029,30.03a24,24,0,0,1-33.942-33.942L222.059,256l-30.03-30.029a24,24,0,0,1,33.942-33.942L256,222.059l30.029-30.03a24,24,0,0,1,33.942,33.942L289.941,256Z"/></g></svg>
